<?xml version="1.0" encoding="iso-8859-1"?>
<!-- Generator: Adobe Illustrator 22.0.0, SVG Export Plug-In . SVG Version: 6.00 Build 0)  -->
<svg version="1.1" id="&#x56FE;&#x5C42;_1" xmlns="http://www.w3.org/2000/svg" xmlns:xlink="http://www.w3.org/1999/xlink" x="0px"
	 y="0px" viewBox="0 0 246.448 246.448" style="enable-background:new 0 0 246.448 246.448;" xml:space="preserve">
<g>
	<path style="fill:#FFFFFF;" d="M123.224,246.448L123.224,246.448C55.451,246.448,0,190.997,0,123.224v0
		C0,55.451,55.451,0,123.224,0h0c67.773,0,123.224,55.451,123.224,123.224v0C246.448,190.997,190.997,246.448,123.224,246.448z"/>
	<g>
		<linearGradient id="SVGID_1_" gradientUnits="userSpaceOnUse" x1="123.2238" y1="183.8823" x2="123.2238" y2="58.2332">
			<stop  offset="2.200000e-07" style="stop-color:#00C6FF"/>
			<stop  offset="0.2289" style="stop-color:#00ABFF"/>
			<stop  offset="0.5453" style="stop-color:#008CFF"/>
			<stop  offset="0.8137" style="stop-color:#0079FF"/>
			<stop  offset="1" style="stop-color:#0072FF"/>
		</linearGradient>
		<path style="fill:url(#SVGID_1_);" d="M158.981,168.401c0-7.048-10.889-12.986-25.774-14.858l22.251-33.712
			c0.251-0.361,0.488-0.731,0.726-1.1l0.643-0.973h-0.051c3.589-5.924,5.693-12.849,5.693-20.28
			c0-22.576-19.063-40.699-41.97-39.152C101.6,59.602,86.141,74.532,84.192,93.372c-0.929,8.983,1.238,17.383,5.48,24.385h-0.354
			l23.382,35.845c-14.611,1.946-25.233,7.834-25.233,14.798c0,8.55,16.009,15.481,35.757,15.481S158.981,176.951,158.981,168.401z
			 M94.617,95.924c0.901-14.266,12.477-25.843,26.743-26.745c17.3-1.094,31.563,13.169,30.47,30.469
			c-0.902,14.267-12.479,25.843-26.746,26.744C107.785,127.484,93.524,113.223,94.617,95.924z M92.161,168.401
			c0-3.675,9.091-8.947,23.41-10.395l5.93,9.091c0.648,0.993,2.101,0.997,2.754,0.007l6.047-9.162
			c14.656,1.362,23.984,6.733,23.984,10.458c0,4.294-12.389,10.787-31.063,10.787C104.55,179.188,92.161,172.695,92.161,168.401z"/>
		<linearGradient id="SVGID_2_" gradientUnits="userSpaceOnUse" x1="123.2237" y1="115.1644" x2="123.2237" y2="79.6261">
			<stop  offset="2.200000e-07" style="stop-color:#00C6FF"/>
			<stop  offset="0.2289" style="stop-color:#00ABFF"/>
			<stop  offset="0.5453" style="stop-color:#008CFF"/>
			<stop  offset="0.8137" style="stop-color:#0079FF"/>
			<stop  offset="1" style="stop-color:#0072FF"/>
		</linearGradient>
		<path style="fill:url(#SVGID_2_);" d="M119.335,96.145l9.809,18.155c0.288,0.532,0.844,0.864,1.449,0.864h4.575
			c0.91,0,1.647-0.737,1.647-1.647V81.273c0-0.91-0.737-1.647-1.647-1.647h-3.429c-0.91,0-1.647,0.737-1.647,1.647v12.521
			c0,4.032,0.527,8.739,0.913,12.439h-0.241l-3.555-7.684l-9.856-18.065c-0.289-0.529-0.843-0.858-1.446-0.858h-4.628
			c-0.909,0-1.647,0.737-1.647,1.647v32.244c0,0.91,0.738,1.647,1.647,1.647h3.431c0.91,0,1.647-0.737,1.647-1.647V100.9
			c0-4.08-0.53-8.546-0.865-12.39h0.238L119.335,96.145z"/>
	</g>
</g>
</svg>
