<?xml version="1.0" encoding="iso-8859-1"?>
<!-- Generator: Adobe Illustrator 22.0.0, SVG Export Plug-In . SVG Version: 6.00 Build 0)  -->
<svg version="1.1" id="&#x56FE;&#x5C42;_1" xmlns="http://www.w3.org/2000/svg" xmlns:xlink="http://www.w3.org/1999/xlink" x="0px"
	 y="0px" viewBox="0 0 246.448 246.448" style="enable-background:new 0 0 246.448 246.448;" xml:space="preserve">
<g>
	<g>
		<path style="fill:#FFFFFF;" d="M123.224,246.448L123.224,246.448C55.451,246.448,0,190.997,0,123.224v0
			C0,55.451,55.451,0,123.224,0h0c67.773,0,123.224,55.451,123.224,123.224v0C246.448,190.997,190.997,246.448,123.224,246.448z"/>
	</g>
	<g>
		<linearGradient id="SVGID_1_" gradientUnits="userSpaceOnUse" x1="77.4916" y1="172.5939" x2="170.6817" y2="79.4038">
			<stop  offset="2.200000e-07" style="stop-color:#00C6FF"/>
			<stop  offset="0.2289" style="stop-color:#00ABFF"/>
			<stop  offset="0.5453" style="stop-color:#008CFF"/>
			<stop  offset="0.8137" style="stop-color:#0079FF"/>
			<stop  offset="1" style="stop-color:#0072FF"/>
		</linearGradient>
		<path style="fill:url(#SVGID_1_);" d="M158.361,71.09c-5.659-0.226-18.478,10.986-21.277,22.183
			c-0.604,2.414,3.169,7.394,6.715,7.621c3.546,0.226,3.999,2.943,2.339,6.413c-1.66,3.471-11.846,17.58-17.505,23.239
			c-5.659,5.659-19.768,15.845-23.239,17.505c-3.471,1.66-6.187,1.207-6.413-2.339c-0.226-3.546-5.206-7.319-7.62-6.715
			c-11.197,2.799-22.409,15.618-22.183,21.277c0.226,5.659,8.601,14.939,16.75,13.129c8.149-1.811,29.2-12.902,50.93-34.632
			c21.73-21.73,32.821-42.781,34.632-50.93C173.3,79.691,164.02,71.316,158.361,71.09z"/>
		<g>
			<linearGradient id="SVGID_2_" gradientUnits="userSpaceOnUse" x1="134.0607" y1="184.2506" x2="186.1724" y2="132.1389">
				<stop  offset="2.200000e-07" style="stop-color:#00C6FF"/>
				<stop  offset="0.2289" style="stop-color:#00ABFF"/>
				<stop  offset="0.5453" style="stop-color:#008CFF"/>
				<stop  offset="0.8137" style="stop-color:#0079FF"/>
				<stop  offset="1" style="stop-color:#0072FF"/>
			</linearGradient>
			<path style="fill:url(#SVGID_2_);" d="M132.832,181.859c-1.362,0-2.559-0.99-2.778-2.378c-0.242-1.535,0.806-2.978,2.342-3.22
				c23.662-3.734,42.018-22.973,44.64-46.786c0.17-1.546,1.564-2.662,3.107-2.49c1.546,0.17,2.661,1.562,2.491,3.107
				c-2.899,26.33-23.197,47.603-49.36,51.731C133.126,181.848,132.978,181.859,132.832,181.859z"/>
		</g>
		<g>
			<linearGradient id="SVGID_3_" gradientUnits="userSpaceOnUse" x1="58.5368" y1="125.304" x2="122.2147" y2="61.6261">
				<stop  offset="2.200000e-07" style="stop-color:#00C6FF"/>
				<stop  offset="0.2289" style="stop-color:#00ABFF"/>
				<stop  offset="0.5453" style="stop-color:#008CFF"/>
				<stop  offset="0.8137" style="stop-color:#0079FF"/>
				<stop  offset="1" style="stop-color:#0072FF"/>
			</linearGradient>
			<path style="fill:url(#SVGID_3_);" d="M68.35,133.954c-1.388,0-2.597-1.026-2.787-2.44c-0.352-2.613-0.531-5.287-0.531-7.945
				c0-32.521,26.458-58.979,58.979-58.979c1.555,0,2.815,1.261,2.815,2.815c0,1.555-1.26,2.815-2.815,2.815
				c-29.416,0-53.348,23.933-53.348,53.349c0,2.408,0.161,4.828,0.48,7.193c0.208,1.541-0.874,2.959-2.415,3.166
				C68.602,133.945,68.475,133.954,68.35,133.954z"/>
		</g>
		<g>
			<linearGradient id="SVGID_4_" gradientUnits="userSpaceOnUse" x1="135.536" y1="149.7101" x2="168.6563" y2="149.7101">
				<stop  offset="2.200000e-07" style="stop-color:#00C6FF"/>
				<stop  offset="0.2289" style="stop-color:#00ABFF"/>
				<stop  offset="0.5453" style="stop-color:#008CFF"/>
				<stop  offset="0.8137" style="stop-color:#0079FF"/>
				<stop  offset="1" style="stop-color:#0072FF"/>
			</linearGradient>
			<path style="fill:url(#SVGID_4_);" d="M138.352,167.119c-1.166,0-2.256-0.729-2.66-1.894c-0.51-1.469,0.268-3.073,1.737-3.583
				c12.514-4.344,22.122-14.545,25.7-27.286c0.42-1.498,1.976-2.369,3.472-1.95c1.497,0.421,2.37,1.975,1.95,3.472
				c-4.076,14.517-15.02,26.137-29.275,31.085C138.97,167.068,138.659,167.119,138.352,167.119z"/>
		</g>
		<g>
			<linearGradient id="SVGID_5_" gradientUnits="userSpaceOnUse" x1="78.0347" y1="102.5449" x2="121.1741" y2="102.5449">
				<stop  offset="2.200000e-07" style="stop-color:#00C6FF"/>
				<stop  offset="0.2289" style="stop-color:#00ABFF"/>
				<stop  offset="0.5453" style="stop-color:#008CFF"/>
				<stop  offset="0.8137" style="stop-color:#0079FF"/>
				<stop  offset="1" style="stop-color:#0072FF"/>
			</linearGradient>
			<path style="fill:url(#SVGID_5_);" d="M80.866,127.433c-1.519,0-2.771-1.21-2.813-2.738c-0.012-0.434-0.018-0.869-0.018-1.307
				c0-23.013,17.175-42.662,39.95-45.706c1.54-0.202,2.958,0.876,3.164,2.418c0.206,1.541-0.876,2.958-2.418,3.164
				c-19.99,2.672-35.065,19.921-35.065,40.124c0,0.385,0.006,0.769,0.016,1.152c0.043,1.554-1.183,2.849-2.737,2.892
				C80.918,127.433,80.892,127.433,80.866,127.433z"/>
		</g>
	</g>
</g>
</svg>
