<?xml version="1.0" encoding="iso-8859-1"?>
<!-- Generator: Adobe Illustrator 22.0.0, SVG Export Plug-In . SVG Version: 6.00 Build 0)  -->
<svg version="1.1" id="&#x56FE;&#x5C42;_1" xmlns="http://www.w3.org/2000/svg" xmlns:xlink="http://www.w3.org/1999/xlink" x="0px"
	 y="0px" viewBox="0 0 248.099 248.099" style="enable-background:new 0 0 248.099 248.099;" xml:space="preserve">
<path style="fill:#FFFFFF;" d="M124.05,248.099L124.05,248.099C55.822,248.099,0,192.277,0,124.05v0C0,55.822,55.822,0,124.049,0h0
	c68.227,0,124.049,55.822,124.049,124.049v0C248.099,192.277,192.277,248.099,124.05,248.099z"/>
<g>
	<linearGradient id="SVGID_1_" gradientUnits="userSpaceOnUse" x1="151.9262" y1="125.5732" x2="151.9262" y2="55.8332">
		<stop  offset="2.200000e-07" style="stop-color:#009DFF"/>
		<stop  offset="0.2891" style="stop-color:#008CFF"/>
		<stop  offset="0.7082" style="stop-color:#0079FF"/>
		<stop  offset="1" style="stop-color:#0072FF"/>
	</linearGradient>
	<path style="fill:url(#SVGID_1_);" d="M186.688,74.247c-0.502-4.445-2.668-8.783-6.098-12.212
		c-7.277-7.278-18.099-8.299-24.124-2.273l-38.581,38.582c-0.133,0.132-0.252,0.279-0.356,0.435
		c-0.046,0.068-0.077,0.142-0.116,0.213c-0.05,0.091-0.104,0.178-0.144,0.274c-0.039,0.094-0.062,0.193-0.09,0.29
		c-0.024,0.08-0.054,0.156-0.071,0.239c-0.036,0.183-0.056,0.369-0.056,0.556v22.388c0,1.565,1.269,2.834,2.834,2.834h22.388
		c0.186,0,0.372-0.019,0.555-0.056c0.085-0.017,0.163-0.048,0.245-0.073c0.095-0.028,0.191-0.05,0.283-0.088
		c0.098-0.04,0.186-0.096,0.278-0.146c0.07-0.038,0.143-0.069,0.21-0.114c0.157-0.105,0.303-0.224,0.435-0.356l38.582-38.582
		C185.859,83.162,187.218,78.933,186.688,74.247z M136.409,120.049l-12.754-0.134c-0.518-0.006-0.935-0.427-0.935-0.945v-11.777
		v-0.843c0-0.841,1.018-1.263,1.613-0.668l12.754,12.754C137.686,119.035,137.256,120.058,136.409,120.049z M153.331,107.844
		c-1.147,1.147-3.008,1.147-4.155,0c-1.147-1.147-1.147-3.008,0-4.155c1.147-1.147,3.007-1.147,4.155,0
		C154.479,104.837,154.479,106.697,153.331,107.844z M171.447,89.728l-11.544,11.544c-1.143,1.143-3.012,1.143-4.155,0
		c-1.143-1.143-1.143-3.012,0-4.155l11.544-11.544c1.143-1.143,3.012-1.143,4.155,0C172.59,86.716,172.59,88.586,171.447,89.728z
		 M178.855,82.15l-2.515,2.515l-18.695-18.066l2.829-2.829c3.749-3.75,11.125-2.708,16.107,2.273
		c2.526,2.526,4.114,5.666,4.473,8.841C181.387,77.82,180.605,80.4,178.855,82.15z"/>
	<g>
		<linearGradient id="SVGID_2_" gradientUnits="userSpaceOnUse" x1="117.8385" y1="192.266" x2="117.8385" y2="69.918">
			<stop  offset="2.200000e-07" style="stop-color:#00C6FF"/>
			<stop  offset="0.2289" style="stop-color:#00ABFF"/>
			<stop  offset="0.5453" style="stop-color:#008CFF"/>
			<stop  offset="0.8137" style="stop-color:#0079FF"/>
			<stop  offset="1" style="stop-color:#0072FF"/>
		</linearGradient>
		<path style="fill:url(#SVGID_2_);" d="M166.752,118.262c0-1.656-1.342-2.998-2.998-2.998c-1.656,0-2.998,1.342-2.998,2.998
			c0,0.011,0.003,0.021,0.003,0.032h-0.003v27.365h0v35.748c0,2.681-2.181,4.862-4.862,4.862h-76.11
			c-2.681,0-4.862-2.181-4.862-4.862V80.776c0-2.681,2.181-4.862,4.862-4.862h27.461c0,0,0.001,0,0.001,0h19.972
			c1.656,0,2.998-1.342,2.998-2.998c0-1.656-1.342-2.998-2.998-2.998h-24.069H79.784c-5.988,0-10.859,4.871-10.859,10.858v100.631
			c0,5.988,4.871,10.859,10.859,10.859h76.11c5.987,0,10.858-4.871,10.858-10.859v-35.748v-10.982v-16.383h-0.003
			C166.749,118.283,166.752,118.273,166.752,118.262z"/>
		<path style="fill:#0090FF;" d="M115.931,135.013H89.444c-2.175,0-3.955,1.78-3.955,3.955s1.78,3.955,3.955,3.955h26.487
			c2.175,0,3.955-1.78,3.955-3.955S118.107,135.013,115.931,135.013z"/>
		<path style="fill:#009CFF;" d="M115.931,149.577H89.444c-2.175,0-3.955,1.78-3.955,3.955c0,2.175,1.78,3.955,3.955,3.955h26.487
			c2.175,0,3.955-1.78,3.955-3.955C119.886,151.357,118.107,149.577,115.931,149.577z"/>
		<path style="fill:#00AAFF;" d="M115.931,164.141H89.444c-2.175,0-3.955,1.78-3.955,3.955c0,2.175,1.78,3.955,3.955,3.955h26.487
			c2.175,0,3.955-1.78,3.955-3.955C119.886,165.921,118.107,164.141,115.931,164.141z"/>
	</g>
</g>
</svg>
