<?xml version="1.0" encoding="iso-8859-1"?>
<!-- Generator: Adobe Illustrator 22.0.0, SVG Export Plug-In . SVG Version: 6.00 Build 0)  -->
<svg version="1.1" id="&#x56FE;&#x5C42;_1" xmlns="http://www.w3.org/2000/svg" xmlns:xlink="http://www.w3.org/1999/xlink" x="0px"
	 y="0px" viewBox="0 0 248.099 248.099" style="enable-background:new 0 0 248.099 248.099;" xml:space="preserve">
<g>
	<path style="fill:#FFFFFF;" d="M124.05,248.099L124.05,248.099C55.822,248.099,0,192.277,0,124.05v0C0,55.822,55.822,0,124.049,0h0
		c68.227,0,124.049,55.822,124.049,124.049v0C248.099,192.277,192.277,248.099,124.05,248.099z"/>
	<g>
		<linearGradient id="SVGID_1_" gradientUnits="userSpaceOnUse" x1="124.0496" y1="179.6378" x2="124.0496" y2="61.4336">
			<stop  offset="2.200000e-07" style="stop-color:#00C6FF"/>
			<stop  offset="0.2289" style="stop-color:#00ABFF"/>
			<stop  offset="0.5453" style="stop-color:#008CFF"/>
			<stop  offset="0.8137" style="stop-color:#0079FF"/>
			<stop  offset="1" style="stop-color:#0072FF"/>
		</linearGradient>
		<path style="fill:url(#SVGID_1_);" d="M174.934,97.039l-47.875-34.834c-1.399-1.019-3.292-1.03-4.704-0.029L73.206,97.01
			c-1.053,0.746-1.686,1.953-1.701,3.244c-0.015,1.291,0.59,2.511,1.626,3.281l23.938,17.796c-1.996,4.051-3.121,8.605-3.121,13.418
			c0,10.679,5.525,20.086,13.863,25.53c-7.281,2.296-14.063,6.087-19.882,11.22c-1.816,1.602-1.99,4.372-0.388,6.188
			c1.601,1.814,4.372,1.99,6.188,0.388c8.477-7.475,19.378-11.593,30.696-11.593c11.552,0,22.623,4.269,31.174,12.02
			c0.839,0.761,1.893,1.136,2.943,1.136c1.194,0,2.384-0.485,3.249-1.439c1.626-1.794,1.49-4.567-0.304-6.193
			c-5.951-5.394-12.932-9.357-20.449-11.727c8.337-5.444,13.862-14.851,13.862-25.529c0-5.593-1.521-10.835-4.162-15.345
			l13.802-9.035v24.805c0,2.035,1.255,3.684,2.803,3.684c1.548,0,2.803-1.649,2.803-3.684V106.7l4.623-3.026
			c1.109-0.726,1.79-1.949,1.823-3.274C176.625,99.075,176.005,97.819,174.934,97.039z M124.424,157.16
			c-12.357,0-22.41-10.054-22.41-22.41s10.053-22.41,22.41-22.41c12.357,0,22.41,10.054,22.41,22.41S136.782,157.16,124.424,157.16z
			"/>
		<linearGradient id="SVGID_2_" gradientUnits="userSpaceOnUse" x1="167.284" y1="149.7148" x2="167.284" y2="142.8755">
			<stop  offset="2.200000e-07" style="stop-color:#00C6FF"/>
			<stop  offset="0.2289" style="stop-color:#00ABFF"/>
			<stop  offset="0.5453" style="stop-color:#008CFF"/>
			<stop  offset="0.8137" style="stop-color:#0079FF"/>
			<stop  offset="1" style="stop-color:#0072FF"/>
		</linearGradient>
		<path style="fill:url(#SVGID_2_);" d="M167.284,142.876c-1.889,0-3.42,1.531-3.42,3.42c0,1.889,1.531,3.419,3.42,3.419
			c1.889,0,3.42-1.531,3.42-3.419C170.704,144.406,169.173,142.876,167.284,142.876z"/>
	</g>
	<g>
		<path style="fill:#FFFFFF;" d="M84.705,97.887c0.948,1.354,0.619,3.219-0.735,4.167c-1.354,0.948-3.219,0.619-4.167-0.735
			c-0.948-1.354-0.619-3.219,0.735-4.167C81.892,96.205,83.757,96.534,84.705,97.887z"/>
		<path style="fill:#FFFFFF;" d="M102.867,88.823L91.58,96.725c-1.348,0.944-3.223,0.613-4.167-0.735l0,0
			c-0.944-1.348-0.613-3.223,0.735-4.167l11.286-7.903c1.348-0.944,3.223-0.613,4.167,0.735l0,0
			C104.545,86.004,104.215,87.879,102.867,88.823z"/>
	</g>
</g>
</svg>
