<?xml version="1.0" encoding="iso-8859-1"?>
<!-- Generator: Adobe Illustrator 22.0.0, SVG Export Plug-In . SVG Version: 6.00 Build 0)  -->
<svg version="1.1" id="&#x56FE;&#x5C42;_1" xmlns="http://www.w3.org/2000/svg" xmlns:xlink="http://www.w3.org/1999/xlink" x="0px"
	 y="0px" viewBox="0 0 248.099 248.099" style="enable-background:new 0 0 248.099 248.099;" xml:space="preserve">
<g>
	<path style="fill:#FFFFFF;" d="M124.05,248.099L124.05,248.099C55.822,248.099,0,192.277,0,124.05v0C0,55.822,55.822,0,124.049,0h0
		c68.227,0,124.05,55.822,124.05,124.049v0C248.099,192.277,192.277,248.099,124.05,248.099z"/>
	<g>
		<g>
			<path style="fill:#0092FF;" d="M123.832,142.895H97.345c-2.175,0-3.955-1.78-3.955-3.955l0,0c0-2.175,1.78-3.955,3.955-3.955
				h26.487c2.175,0,3.955,1.78,3.955,3.955l0,0C127.787,141.116,126.007,142.895,123.832,142.895z"/>
		</g>
	</g>
	<g>
		<g>
			<path style="fill:#00A1FF;" d="M123.832,157.459H97.345c-2.175,0-3.955-1.78-3.955-3.955l0,0c0-2.175,1.78-3.955,3.955-3.955
				h26.487c2.175,0,3.955,1.78,3.955,3.955l0,0C127.787,155.68,126.007,157.459,123.832,157.459z"/>
		</g>
	</g>
	<g>
		<g>
			<path style="fill:#00ABFF;" d="M123.832,172.023H97.345c-2.175,0-3.955-1.78-3.955-3.955l0,0c0-2.175,1.78-3.955,3.955-3.955
				h26.487c2.175,0,3.955,1.78,3.955,3.955l0,0C127.787,170.243,126.007,172.023,123.832,172.023z"/>
		</g>
	</g>
	<linearGradient id="SVGID_1_" gradientUnits="userSpaceOnUse" x1="125.7388" y1="192.2383" x2="125.7388" y2="69.8903">
		<stop  offset="2.200000e-07" style="stop-color:#00C6FF"/>
		<stop  offset="0.2289" style="stop-color:#00ABFF"/>
		<stop  offset="0.5453" style="stop-color:#008CFF"/>
		<stop  offset="0.8137" style="stop-color:#0079FF"/>
		<stop  offset="1" style="stop-color:#0072FF"/>
	</linearGradient>
	<path style="fill:url(#SVGID_1_);" d="M174.652,134.642c0-1.656-1.342-2.998-2.998-2.998c-1.656,0-2.998,1.342-2.998,2.998
		c0,0.002,0.001,0.005,0.001,0.007h-0.001v46.73c0,2.681-2.181,4.862-4.862,4.862h-76.11c-2.681,0-4.862-2.181-4.862-4.862V80.749
		c0-2.681,2.181-4.862,4.862-4.862h27.461c1.656,0,2.998-1.342,2.998-2.998c0-1.656-1.342-2.998-2.998-2.998H87.684
		c-5.988,0-10.859,4.871-10.859,10.858V181.38c0,5.988,4.871,10.859,10.859,10.859h76.11c5.987,0,10.858-4.871,10.858-10.859v-46.73
		h-0.001C174.651,134.647,174.652,134.645,174.652,134.642z"/>
	<g>
		<linearGradient id="SVGID_2_" gradientUnits="userSpaceOnUse" x1="158.0788" y1="128.3315" x2="158.0788" y2="54.6388">
			<stop  offset="2.200000e-07" style="stop-color:#00C6FF"/>
			<stop  offset="0.2289" style="stop-color:#00ABFF"/>
			<stop  offset="0.5453" style="stop-color:#008CFF"/>
			<stop  offset="0.8137" style="stop-color:#0079FF"/>
			<stop  offset="1" style="stop-color:#0072FF"/>
		</linearGradient>
		<path style="fill:url(#SVGID_2_);" d="M158.079,54.639c-20.35,0-36.846,16.497-36.846,36.846s16.497,36.846,36.846,36.846
			c20.35,0,36.846-16.497,36.846-36.846S178.428,54.639,158.079,54.639z M177.694,101.431c-0.688,0-1.247-0.558-1.247-1.247
			c0-0.689,0.558-1.247,1.247-1.247c0.689,0,1.247,0.558,1.247,1.247C178.941,100.873,178.383,101.431,177.694,101.431z
			 M181.126,81.171l-2.143,1.403c0.002,0.039,0.009,0.076,0.009,0.115V96.19c0,0.939-0.593,1.7-1.324,1.7
			c-0.732,0-1.325-0.761-1.325-1.7V84.302l-6.571,4.301c1.247,2.131,1.966,4.608,1.966,7.25c0,5.046-2.61,9.49-6.549,12.062
			c3.552,1.12,6.85,2.992,9.662,5.541c0.848,0.768,0.912,2.078,0.144,2.926c-0.409,0.451-0.971,0.68-1.535,0.68
			c-0.496,0-0.994-0.177-1.391-0.537c-4.04-3.662-9.271-5.679-14.729-5.679c-5.347,0-10.498,1.945-14.503,5.477
			c-0.858,0.757-2.167,0.674-2.924-0.183c-0.757-0.858-0.674-2.167,0.183-2.924c2.749-2.425,5.954-4.216,9.394-5.301
			c-3.939-2.572-6.55-7.017-6.55-12.062c0-2.274,0.532-4.426,1.475-6.34l-11.311-8.408c-0.49-0.364-0.775-0.94-0.768-1.55
			c0.007-0.61,0.306-1.18,0.803-1.533l23.222-16.458c0.667-0.473,1.561-0.467,2.223,0.014l22.62,16.458
			c0.506,0.368,0.799,0.962,0.784,1.588C181.972,80.25,181.65,80.828,181.126,81.171z"/>
		<linearGradient id="SVGID_3_" gradientUnits="userSpaceOnUse" x1="143.8814" y1="78.2389" x2="143.8814" y2="71.6604">
			<stop  offset="2.200000e-07" style="stop-color:#00C6FF"/>
			<stop  offset="0.2289" style="stop-color:#00ABFF"/>
			<stop  offset="0.5453" style="stop-color:#008CFF"/>
			<stop  offset="0.8137" style="stop-color:#0079FF"/>
			<stop  offset="1" style="stop-color:#0072FF"/>
		</linearGradient>
		<path style="fill:url(#SVGID_3_);" d="M147.717,72.264c-0.447-0.639-1.336-0.796-1.975-0.348l-5.349,3.745
			c-0.639,0.448-0.796,1.336-0.348,1.975c0.447,0.639,1.336,0.796,1.975,0.348l5.349-3.746
			C148.008,73.791,148.165,72.902,147.717,72.264z"/>
		<linearGradient id="SVGID_4_" gradientUnits="userSpaceOnUse" x1="157.3385" y1="106.4425" x2="157.3385" y2="85.2653">
			<stop  offset="2.200000e-07" style="stop-color:#00C6FF"/>
			<stop  offset="0.2289" style="stop-color:#00ABFF"/>
			<stop  offset="0.5453" style="stop-color:#008CFF"/>
			<stop  offset="0.8137" style="stop-color:#0079FF"/>
			<stop  offset="1" style="stop-color:#0072FF"/>
		</linearGradient>
		<circle style="fill:url(#SVGID_4_);" cx="157.339" cy="95.854" r="10.589"/>
		<linearGradient id="SVGID_5_" gradientUnits="userSpaceOnUse" x1="137.6001" y1="80.766" x2="137.6001" y2="77.9299">
			<stop  offset="2.200000e-07" style="stop-color:#00C6FF"/>
			<stop  offset="0.2289" style="stop-color:#00ABFF"/>
			<stop  offset="0.5453" style="stop-color:#008CFF"/>
			<stop  offset="0.8137" style="stop-color:#0079FF"/>
			<stop  offset="1" style="stop-color:#0072FF"/>
		</linearGradient>
		<path style="fill:url(#SVGID_5_);" d="M136.787,78.186c-0.641,0.449-0.797,1.333-0.348,1.975c0.449,0.641,1.333,0.797,1.975,0.348
			c0.641-0.449,0.797-1.333,0.348-1.975C138.312,77.893,137.428,77.737,136.787,78.186z"/>
	</g>
</g>
</svg>
