<?xml version="1.0" encoding="iso-8859-1"?>
<!-- Generator: Adobe Illustrator 22.0.0, SVG Export Plug-In . SVG Version: 6.00 Build 0)  -->
<svg version="1.1" id="&#x56FE;&#x5C42;_1" xmlns="http://www.w3.org/2000/svg" xmlns:xlink="http://www.w3.org/1999/xlink" x="0px"
	 y="0px" viewBox="0 0 175.114 175.114" style="enable-background:new 0 0 175.114 175.114;" xml:space="preserve">
<linearGradient id="SVGID_1_" gradientUnits="userSpaceOnUse" x1="0" y1="87.5571" x2="175.1142" y2="87.5571">
	<stop  offset="0" style="stop-color:#F7B332"/>
	<stop  offset="1" style="stop-color:#FC4B1A"/>
</linearGradient>
<circle style="fill:url(#SVGID_1_);" cx="87.557" cy="87.557" r="87.557"/>
<path style="fill:#FFFFFF;" d="M128.71,80.411H65.007l23.167-23.166c3.032-3.032,3.032-7.946,0-10.978
	c-3.033-3.03-7.947-3.032-10.978,0l-36.28,36.279c-3.031,3.032-3.031,7.947,0,10.978l35.344,35.344
	c1.516,1.515,3.502,2.273,5.489,2.273c1.986,0,3.974-0.758,5.489-2.273c3.032-3.032,3.032-7.947,0-10.978L65.283,95.936h63.427
	c4.287,0,7.763-3.476,7.763-7.763C136.472,83.887,132.997,80.411,128.71,80.411z"/>
</svg>
