<?xml version="1.0" encoding="iso-8859-1"?>
<!-- Generator: Adobe Illustrator 22.0.0, SVG Export Plug-In . SVG Version: 6.00 Build 0)  -->
<svg version="1.1" id="&#x56FE;&#x5C42;_1" xmlns="http://www.w3.org/2000/svg" xmlns:xlink="http://www.w3.org/1999/xlink" x="0px"
	 y="0px" viewBox="0 0 53.012 53.012" style="enable-background:new 0 0 53.012 53.012;" xml:space="preserve">
<g>
	<g>
		<path style="fill:#45A2FF;" d="M26.506,53.012C11.891,53.012,0,41.121,0,26.506C0,11.891,11.891,0,26.506,0
			c14.616,0,26.506,11.891,26.506,26.506C53.012,41.121,41.122,53.012,26.506,53.012z M26.506,2.781
			c-13.082,0-23.725,10.643-23.725,23.725c0,13.082,10.643,23.725,23.725,23.725c13.082,0,23.724-10.643,23.724-23.725
			C50.231,13.424,39.588,2.781,26.506,2.781z"/>
	</g>
</g>
<g>
	<path style="fill:none;stroke:#45A2FF;stroke-width:2.5328;stroke-miterlimit:10;" d="M37.188,12.318l3.506,3.506
		c0.989,0.989,0.989,2.593,0,3.582L20.993,39.106l-7.088-7.088l19.701-19.701C34.595,11.329,36.199,11.329,37.188,12.318z"/>
	
		<line style="fill:none;stroke:#45A2FF;stroke-width:2.5328;stroke-miterlimit:10;" x1="30.672" y1="15.252" x2="37.759" y2="22.34"/>
	<path style="fill:none;stroke:#45A2FF;stroke-width:2.5362;stroke-linecap:round;stroke-miterlimit:10;" d="M20.064,40.035
		l-7.273,1.135c-0.567,0.089-1.055-0.402-0.964-0.968l1.168-7.274"/>
</g>
</svg>
