<?xml version="1.0" encoding="iso-8859-1"?>
<!-- Generator: Adobe Illustrator 22.0.0, SVG Export Plug-In . SVG Version: 6.00 Build 0)  -->
<svg version="1.1" id="&#x56FE;&#x5C42;_1" xmlns="http://www.w3.org/2000/svg" xmlns:xlink="http://www.w3.org/1999/xlink" x="0px"
	 y="0px" viewBox="0 0 247.025 247.025" style="enable-background:new 0 0 247.025 247.025;" xml:space="preserve">
<g>
	<circle style="fill:#FFFFFF;" cx="123.512" cy="123.512" r="123.512"/>
	<g>
		<g>
			<linearGradient id="SVGID_1_" gradientUnits="userSpaceOnUse" x1="146.4955" y1="168.8717" x2="146.4955" y2="135.749">
				<stop  offset="2.200000e-07" style="stop-color:#00C6FF"/>
				<stop  offset="0.2289" style="stop-color:#00ABFF"/>
				<stop  offset="0.5453" style="stop-color:#008CFF"/>
				<stop  offset="0.8137" style="stop-color:#0079FF"/>
				<stop  offset="1" style="stop-color:#0072FF"/>
			</linearGradient>
			<path style="fill:url(#SVGID_1_);" d="M142.739,157.678v-4.263c0-0.909,0.964-2.036,2.898-3.388
				c0.227-0.203,0.398-0.331,0.511-0.377c2.499-1.577,3.693-3.309,3.581-5.198c-0.221-1.772-1.337-2.391-3.35-1.858
				c-0.152,0.04-0.303,0.092-0.446,0.158c-1.293,0.601-2.585,1.918-3.878,3.948c-1.138,1.711-2.161,2.748-3.07,3.115
				c-1.502,0.501-2.345-0.073-2.531-1.722c-0.023-0.206-0.017-0.419,0.011-0.624c0.567-4.092,3.72-7.646,9.459-10.662
				c0.145-0.076,0.303-0.143,0.459-0.194c6.375-2.068,9.761-0.427,10.154,4.925c0.008,0.104,0.011,0.211,0.01,0.315
				c-0.054,4.149-2.249,7.83-6.586,11.045c-0.684,0.507-1.086,1.312-1.086,2.164v0.136c-0.111,1.908-1.064,3.311-2.861,4.209
				c-0.136,0.068-0.284,0.128-0.429,0.172C143.795,160.128,142.846,159.494,142.739,157.678z M145.992,168.458
				c-0.12,0.058-0.252,0.111-0.379,0.153c-2.034,0.658-3.107,0.074-3.215-1.757c0.207-1.959,1.18-3.462,2.916-4.512
				c0.315-0.19,0.657-0.334,1.018-0.405c1.599-0.315,2.542,0.288,2.833,1.811c0.044,0.23,0.05,0.472,0.021,0.704
				C148.969,166.2,147.904,167.534,145.992,168.458z"/>
		</g>
		<linearGradient id="SVGID_2_" gradientUnits="userSpaceOnUse" x1="123.5125" y1="192.7513" x2="123.5125" y2="62.1078">
			<stop  offset="2.200000e-07" style="stop-color:#00C6FF"/>
			<stop  offset="0.2289" style="stop-color:#00ABFF"/>
			<stop  offset="0.5453" style="stop-color:#008CFF"/>
			<stop  offset="0.8137" style="stop-color:#0079FF"/>
			<stop  offset="1" style="stop-color:#0072FF"/>
		</linearGradient>
		<path style="fill:url(#SVGID_2_);" d="M167.412,123.327h-0.005c-1.301,0-2.363,1.047-2.378,2.351l-0.424,36.391
			c-0.053,6.398-3.254,12.041-8.117,14.36l-19.446,8.85c-0.038,0.018-0.076,0.036-0.114,0.054
			c-5.407,2.55-11.622-1.503-11.622-7.481v-35.68c0-5.661,3.489-10.821,8.833-12.689c0.964-0.337,1.918-0.73,2.861-1.179
			l7.402-3.529l21.384-10.195c1.997-0.953,3.238-2.919,3.238-5.132c0-2.213-1.24-4.179-3.238-5.132l-28.955-13.804
			c-7.425-3.54-15.601-3.54-23.035,0.005L94.395,99.89c-0.517,0.25-0.876-0.016-1.044-0.196c-0.168-0.181-0.407-0.558-0.12-1.056
			l9.817-17.019c1.894-3.284,4.718-5.852,8.167-7.428l16.368-7.477c1.183-0.54,1.846-1.914,1.357-3.119
			c-0.513-1.264-1.967-1.832-3.194-1.273l-16.508,7.541c-4.354,1.989-7.92,5.232-10.311,9.378l-9.726,16.861
			c-1.176,2.039-1.109,4.638,0.361,6.477c1.714,2.144,4.481,2.763,6.903,1.594l19.39-9.369c6.104-2.91,12.825-2.909,18.928,0
			l28.955,13.805c0.46,0.219,0.529,0.618,0.529,0.837c0,0.219-0.069,0.618-0.529,0.837l-28.786,13.725
			c-6.211,2.962-13.055,2.962-19.266,0l-24.795-11.824c-2.803-1.337-5.93-1.145-8.579,0.527c-3.13,1.975-5.075,5.74-5.075,9.825
			v36.332c0,8.715,4.479,16.482,11.412,19.787l22.899,10.918c4.445,2.119,9.115,3.178,13.781,3.178c4.656,0,9.306-1.054,13.722-3.16
			l19.446-8.85c6.532-3.114,10.797-10.428,10.865-18.625l0.424-36.388C169.802,124.407,168.734,123.327,167.412,123.327z"/>
	</g>
</g>
</svg>
