<?xml version="1.0" encoding="iso-8859-1"?>
<!-- Generator: Adobe Illustrator 22.0.0, SVG Export Plug-In . SVG Version: 6.00 Build 0)  -->
<svg version="1.1" id="&#x56FE;&#x5C42;_1" xmlns="http://www.w3.org/2000/svg" xmlns:xlink="http://www.w3.org/1999/xlink" x="0px"
	 y="0px" viewBox="0 0 244.54 244.54" style="enable-background:new 0 0 244.54 244.54;" xml:space="preserve">
<g>
	
		<ellipse transform="matrix(0.7071 -0.7071 0.7071 0.7071 -50.6459 122.2702)" style="fill:#FFFFFF;" cx="122.27" cy="122.27" rx="122.27" ry="122.27"/>
	<g>
		<linearGradient id="SVGID_1_" gradientUnits="userSpaceOnUse" x1="74.307" y1="116.0857" x2="179.3213" y2="116.0857">
			<stop  offset="2.200000e-07" style="stop-color:#00C6FF"/>
			<stop  offset="0.2289" style="stop-color:#00ABFF"/>
			<stop  offset="0.5453" style="stop-color:#008CFF"/>
			<stop  offset="0.8137" style="stop-color:#0079FF"/>
			<stop  offset="1" style="stop-color:#0072FF"/>
		</linearGradient>
		<path style="fill:url(#SVGID_1_);" d="M178.821,152.688l-21.365-79.149c-1.746-6.466-7.643-10.983-14.341-10.983H94.568
			c-1.67,0-3.161,1.221-3.319,2.883c-0.182,1.907,1.313,3.511,3.182,3.511h48.685c3.824,0,7.173,2.565,8.169,6.256l0.365,1.35
			h-19.691c-2.592,0-4.491,2.441-3.853,4.954l11.401,44.864c0.448,1.762,2.034,2.996,3.853,2.996h22.546l6.848,25.37
			c0.559,2.074,0.114,4.243-1.223,5.932c-1.317,1.663-3.388,2.549-5.509,2.549h-16.505c-1.783,0-3.341-1.167-3.792-2.837
			c-2.714-10.071-11.902-17.104-22.343-17.104c-10.692,0-19.934,7.244-22.474,17.616c-0.335,1.369-1.517,2.326-2.874,2.326H77.641
			c-1.67,0-3.161,1.221-3.319,2.883c-0.182,1.907,1.313,3.511,3.182,3.511h20.53c4.311,0,8.046-2.96,9.085-7.198
			c1.838-7.503,8.526-12.743,16.264-12.743c7.556,0,14.206,5.089,16.169,12.374c1.201,4.455,5.299,7.567,9.965,7.567h16.742
			c4.065,0,7.818-1.828,10.322-5.02C179.203,161.251,179.929,156.791,178.821,152.688z M141.407,115.358l-7.249-27.667
			c-0.369-1.409,0.474-2.85,1.883-3.219c1.409-0.371,2.85,0.474,3.219,1.882l7.249,27.667c0.37,1.409-0.473,2.85-1.882,3.219
			c-0.224,0.059-0.449,0.087-0.671,0.087C142.786,117.327,141.718,116.543,141.407,115.358z M146.595,125.296
			c-1.513,0-2.739-1.226-2.739-2.739c0-1.513,1.227-2.739,2.739-2.739c1.513,0,2.739,1.226,2.739,2.739
			C149.335,124.07,148.108,125.296,146.595,125.296z"/>
		<linearGradient id="SVGID_2_" gradientUnits="userSpaceOnUse" x1="115.7054" y1="172.7442" x2="131.234" y2="157.2157">
			<stop  offset="2.200000e-07" style="stop-color:#00C6FF"/>
			<stop  offset="0.191" style="stop-color:#00BDFF"/>
			<stop  offset="0.4989" style="stop-color:#00A6FF"/>
			<stop  offset="0.8834" style="stop-color:#007FFF"/>
			<stop  offset="1" style="stop-color:#0072FF"/>
		</linearGradient>
		<path style="fill:url(#SVGID_2_);" d="M123.47,175.966c6.057,0,10.986-4.928,10.986-10.986c0-6.057-4.928-10.986-10.986-10.986
			c-6.057,0-10.986,4.928-10.986,10.986C112.484,171.037,117.412,175.966,123.47,175.966z M123.47,160.198
			c2.637,0,4.782,2.145,4.782,4.782c0,2.637-2.145,4.782-4.782,4.782c-2.636,0-4.782-2.145-4.782-4.782
			C118.688,162.343,120.833,160.198,123.47,160.198z"/>
		<linearGradient id="SVGID_3_" gradientUnits="userSpaceOnUse" x1="123.4697" y1="186.8231" x2="123.4697" y2="171.5711">
			<stop  offset="2.200000e-07" style="stop-color:#00C6FF"/>
			<stop  offset="0.5586" style="stop-color:#00C4FF"/>
			<stop  offset="0.7598" style="stop-color:#00BDFF"/>
			<stop  offset="0.9027" style="stop-color:#00B2FF"/>
			<stop  offset="1" style="stop-color:#00A4FF"/>
		</linearGradient>
		<path style="fill:url(#SVGID_3_);" d="M140.045,172.291c-1.526-0.887-3.483-0.369-4.371,1.157
			c-2.503,4.307-7.149,6.982-12.123,6.982c-5.085,0-9.781-2.765-12.255-7.214c-0.858-1.543-2.805-2.099-4.348-1.241
			c-1.543,0.858-2.099,2.805-1.241,4.348c3.602,6.477,10.439,10.501,17.844,10.501c7.244,0,14.007-3.894,17.651-10.162
			C142.089,175.135,141.571,173.178,140.045,172.291z"/>
	</g>
</g>
</svg>
