<?xml version="1.0" encoding="iso-8859-1"?>
<!-- Generator: Adobe Illustrator 22.0.0, SVG Export Plug-In . SVG Version: 6.00 Build 0)  -->
<svg version="1.1" id="&#x56FE;&#x5C42;_1" xmlns="http://www.w3.org/2000/svg" xmlns:xlink="http://www.w3.org/1999/xlink" x="0px"
	 y="0px" viewBox="0 0 248.099 248.099" style="enable-background:new 0 0 248.099 248.099;" xml:space="preserve">
<g>
	<path style="fill:#FFFFFF;" d="M124.05,248.099L124.05,248.099C55.822,248.099,0,192.277,0,124.05v0C0,55.822,55.822,0,124.049,0h0
		c68.227,0,124.049,55.822,124.049,124.049v0C248.099,192.277,192.277,248.099,124.05,248.099z"/>
	<g>
		<linearGradient id="SVGID_1_" gradientUnits="userSpaceOnUse" x1="156.7297" y1="111.4612" x2="156.7297" y2="48.7908">
			<stop  offset="2.200000e-07" style="stop-color:#00C6FF"/>
			<stop  offset="0.2289" style="stop-color:#00ABFF"/>
			<stop  offset="0.5453" style="stop-color:#008CFF"/>
			<stop  offset="0.8137" style="stop-color:#0079FF"/>
			<stop  offset="1" style="stop-color:#0072FF"/>
		</linearGradient>
		<path style="fill:url(#SVGID_1_);" d="M160.131,48.971c-19.941-2.112-36.668,14.614-34.556,34.556
			c1.539,14.531,13.22,26.212,27.75,27.753c19.944,2.115,36.674-14.615,34.559-34.559C186.343,62.191,174.661,50.51,160.131,48.971z
			 M167.796,83.445h-11.321c-1.685,0-3.051-1.366-3.051-3.05V60.082c0-1.329,0.799-2.59,2.067-2.987
			c2.102-0.659,4.034,0.893,4.034,2.897v17.353h8.179c1.329,0,2.59,0.799,2.988,2.067C171.353,81.513,169.8,83.445,167.796,83.445z"
			/>
		<linearGradient id="SVGID_2_" gradientUnits="userSpaceOnUse" x1="120.2366" y1="190.2917" x2="120.2366" y2="70.5616">
			<stop  offset="2.200000e-07" style="stop-color:#00C6FF"/>
			<stop  offset="0.2289" style="stop-color:#00ABFF"/>
			<stop  offset="0.5453" style="stop-color:#008CFF"/>
			<stop  offset="0.8137" style="stop-color:#0079FF"/>
			<stop  offset="1" style="stop-color:#0072FF"/>
		</linearGradient>
		<path style="fill:url(#SVGID_2_);" d="M163.89,116.389c-0.88,0.515-1.348,1.527-1.276,2.544l0.001,0.013h-0.001v1.533v1.12v0.247
			v1.588v3.53H98.299v-23.356h0.179h20.185h0.079c1.991,0,3.205-2.136,2.243-3.88c-3.208-5.82-5.039-12.499-5.039-19.601
			l0.006-4.835c0.003-2.601-2.123-4.729-4.724-4.729H83.961c-6.739,0-12.202,5.463-12.202,12.202v95.326
			c0,6.739,5.463,12.202,12.202,12.202h72.552c6.739,0,12.202-5.463,12.202-12.202v-58.98c-0.006,0.002-0.012,0.004-0.018,0.005
			c0.004-0.061,0.018-0.119,0.018-0.182C168.715,116.68,166.272,114.997,163.89,116.389z M91.685,184.191h-2.488h-5.236
			c-3.37,0-6.101-2.731-6.101-6.101v-5.236v-11.518v-1.934h13.826V184.191z M91.685,152.788H77.86v-4.266v-14.945h13.826V152.788z
			 M91.685,126.964H77.86v-5.118v-14.689v-3.549h3.549h10.276V126.964z M162.614,161.336v16.754c0,3.37-2.732,6.101-6.101,6.101
			h-22.843h-8.905h-6.101H98.478h-0.179v-24.789h64.315V161.336z M162.614,133.904v14.618v4.266H98.299v-19.211h64.315V133.904z"/>
	</g>
</g>
</svg>
