<?xml version="1.0" encoding="iso-8859-1"?>
<!-- Generator: Adobe Illustrator 22.0.0, SVG Export Plug-In . SVG Version: 6.00 Build 0)  -->
<svg version="1.1" id="&#x56FE;&#x5C42;_1" xmlns="http://www.w3.org/2000/svg" xmlns:xlink="http://www.w3.org/1999/xlink" x="0px"
	 y="0px" viewBox="0 0 248.099 248.099" style="enable-background:new 0 0 248.099 248.099;" xml:space="preserve">
<g>
	<path style="fill:#FFFFFF;" d="M124.05,248.099L124.05,248.099C55.822,248.099,0,192.277,0,124.05v0C0,55.822,55.822,0,124.049,0h0
		c68.227,0,124.049,55.822,124.049,124.049v0C248.099,192.277,192.277,248.099,124.05,248.099z"/>
	<g>
		<linearGradient id="SVGID_1_" gradientUnits="userSpaceOnUse" x1="119.1358" y1="192.0021" x2="119.1358" y2="69.6542">
			<stop  offset="2.200000e-07" style="stop-color:#00C6FF"/>
			<stop  offset="0.2289" style="stop-color:#00ABFF"/>
			<stop  offset="0.5453" style="stop-color:#008CFF"/>
			<stop  offset="0.8137" style="stop-color:#0079FF"/>
			<stop  offset="1" style="stop-color:#0072FF"/>
		</linearGradient>
		<path style="fill:url(#SVGID_1_);" d="M168.049,134.406c0-1.656-1.342-2.998-2.998-2.998c-1.656,0-2.998,1.342-2.998,2.998
			c0,0.002,0.001,0.005,0.001,0.007h-0.001v46.73c0,2.681-2.181,4.862-4.862,4.862h-76.11c-2.681,0-4.862-2.181-4.862-4.862V80.512
			c0-2.681,2.181-4.862,4.862-4.862h27.461c1.656,0,2.998-1.342,2.998-2.998c0-1.656-1.342-2.998-2.998-2.998H81.081
			c-5.987,0-10.859,4.871-10.859,10.858v100.631c0,5.988,4.871,10.859,10.859,10.859h76.11c5.988,0,10.858-4.871,10.858-10.859
			v-46.73h-0.001C168.048,134.411,168.049,134.409,168.049,134.406z"/>
		<g>
			<g>
				<path style="fill:#0092FF;" d="M117.229,142.659H90.742c-2.175,0-3.955-1.78-3.955-3.955l0,0c0-2.175,1.78-3.955,3.955-3.955
					h26.487c2.175,0,3.955,1.78,3.955,3.955l0,0C121.184,140.88,119.404,142.659,117.229,142.659z"/>
			</g>
		</g>
		<g>
			<g>
				<path style="fill:#00A1FF;" d="M117.229,157.223H90.742c-2.175,0-3.955-1.78-3.955-3.955l0,0c0-2.175,1.78-3.955,3.955-3.955
					h26.487c2.175,0,3.955,1.78,3.955,3.955l0,0C121.184,155.443,119.404,157.223,117.229,157.223z"/>
			</g>
		</g>
		<g>
			<g>
				<path style="fill:#00ABFF;" d="M117.229,171.787H90.742c-2.175,0-3.955-1.78-3.955-3.955l0,0c0-2.175,1.78-3.955,3.955-3.955
					h26.487c2.175,0,3.955,1.78,3.955,3.955l0,0C121.184,170.007,119.404,171.787,117.229,171.787z"/>
			</g>
		</g>
		<g>
			<linearGradient id="SVGID_2_" gradientUnits="userSpaceOnUse" x1="151.3068" y1="92.8232" x2="151.3068" y2="77.783">
				<stop  offset="2.200000e-07" style="stop-color:#0081FF"/>
				<stop  offset="1" style="stop-color:#0082FF"/>
			</linearGradient>
			<path style="fill:url(#SVGID_2_);" d="M154.68,88.683c-0.984-3.294-1.863-6.868-2.782-10.345
				c-0.224-0.753-1.065-0.737-1.236,0.033l-0.004-0.003c-0.85,3.491-1.785,7.027-2.724,10.316l-0.735,2.705
				c-0.196,0.723,0.348,1.435,1.098,1.435h6.021c0.749,0,1.294-0.712,1.097-1.435L154.68,88.683z"/>
			<linearGradient id="SVGID_3_" gradientUnits="userSpaceOnUse" x1="151.388" y1="124.0496" x2="151.388" y2="53.8211">
				<stop  offset="2.200000e-07" style="stop-color:#0096FF"/>
				<stop  offset="0.1993" style="stop-color:#008CFF"/>
				<stop  offset="0.6714" style="stop-color:#0079FF"/>
				<stop  offset="1" style="stop-color:#0072FF"/>
			</linearGradient>
			<path style="fill:url(#SVGID_3_);" d="M151.388,53.821c-19.393,0-35.114,15.721-35.114,35.114
				c0,19.393,15.721,35.114,35.114,35.114s35.114-15.721,35.114-35.114C186.502,69.542,170.781,53.821,151.388,53.821z
				 M163.341,108.393c-1.845,0.185-3.52-0.989-3.999-2.741l-1.673-6.113c-0.135-0.494-0.584-0.837-1.097-0.837h-10.531
				c-0.512,0-0.962,0.343-1.097,0.837l-1.673,6.113c-0.446,1.63-1.927,2.76-3.617,2.76h-0.005c-2.373,0-4.06-2.311-3.336-4.571
				l9.7-30.288c0,0,0-0.001,0-0.001l0.084-0.263c0.191-0.596,0.45-1.168,0.752-1.716c0.001-0.002,0.002-0.004,0.003-0.006
				c2.313-3.872,7.328-3.796,9.353,0.343c0.066,0.112,0.123,0.23,0.172,0.353c0.169,0.399,0.318,0.821,0.43,1.288l9.615,29.896
				C167.182,105.808,165.809,108.145,163.341,108.393z"/>
		</g>
	</g>
</g>
</svg>
