<?xml version="1.0" encoding="iso-8859-1"?>
<!-- Generator: Adobe Illustrator 22.0.0, SVG Export Plug-In . SVG Version: 6.00 Build 0)  -->
<svg version="1.1" id="&#x56FE;&#x5C42;_1" xmlns="http://www.w3.org/2000/svg" xmlns:xlink="http://www.w3.org/1999/xlink" x="0px"
	 y="0px" viewBox="0 0 248.099 248.099" style="enable-background:new 0 0 248.099 248.099;" xml:space="preserve">
<g>
	<g>
		<g>
			<path style="fill:#FFFFFF;" d="M124.05,248.099L124.05,248.099C55.822,248.099,0,192.277,0,124.05v0C0,55.822,55.822,0,124.049,0
				h0c68.227,0,124.05,55.822,124.05,124.049v0C248.099,192.277,192.277,248.099,124.05,248.099z"/>
		</g>
		<g>
			<g>
				<g>
					<linearGradient id="SVGID_1_" gradientUnits="userSpaceOnUse" x1="126.8357" y1="84.5422" x2="126.8357" y2="84.5422">
						<stop  offset="2.200000e-07" style="stop-color:#00C6FF"/>
						<stop  offset="0.2289" style="stop-color:#00ABFF"/>
						<stop  offset="0.5453" style="stop-color:#008CFF"/>
						<stop  offset="0.8137" style="stop-color:#0079FF"/>
						<stop  offset="1" style="stop-color:#0072FF"/>
					</linearGradient>
					<path style="fill:url(#SVGID_1_);" d="M126.836,84.542"/>
				</g>
				<linearGradient id="SVGID_2_" gradientUnits="userSpaceOnUse" x1="150.8587" y1="120.3192" x2="150.8587" y2="64.8966">
					<stop  offset="2.200000e-07" style="stop-color:#00C6FF"/>
					<stop  offset="0.2289" style="stop-color:#00ABFF"/>
					<stop  offset="0.5453" style="stop-color:#008CFF"/>
					<stop  offset="0.8137" style="stop-color:#0079FF"/>
					<stop  offset="1" style="stop-color:#0072FF"/>
				</linearGradient>
				<path style="fill:url(#SVGID_2_);" d="M164.596,120.319h-27.475c-7.686,0-13.974-6.288-13.974-13.974V78.871
					c0-7.686,6.288-13.974,13.974-13.974h27.475c7.686,0,13.974,6.288,13.974,13.974v27.475
					C178.57,114.031,172.282,120.319,164.596,120.319z"/>
			</g>
			<path style="fill:#FFFFFF;" d="M182.703,62.665c0.757,0,1.515,0.275,2.114,0.831c1.259,1.169,1.331,3.136,0.163,4.393
				l-38.809,41.808c-0.592,0.638-1.42,0.994-2.279,0.994c-0.137,0-0.275-0.008-0.412-0.027c-1.001-0.133-1.874-0.746-2.342-1.641
				l-8.126-15.526l-14.869,11.924c-0.574,0.459-1.261,0.683-1.943,0.683c-0.911,0-1.813-0.398-2.428-1.162
				c-1.074-1.341-0.859-3.297,0.481-4.371l17.817-14.289c0.555-0.445,1.241-0.684,1.941-0.684c0.214,0,0.428,0.022,0.641,0.067
				c0.909,0.19,1.687,0.777,2.117,1.601l7.839,14.976l35.815-38.581C181.036,62.999,181.869,62.665,182.703,62.665 M182.703,59.203
				L182.703,59.203c-1.822,0-3.578,0.766-4.818,2.103l-32.482,34.991l-5.567-10.636c-0.913-1.747-2.545-2.981-4.477-3.385
				c-0.435-0.093-0.893-0.141-1.349-0.141c-1.487,0-2.946,0.514-4.108,1.446l-17.815,14.288c-2.825,2.266-3.281,6.409-1.017,9.236
				c1.258,1.565,3.127,2.46,5.13,2.46c1.486,0,2.945-0.512,4.106-1.442l11.59-9.294l6.175,11.799
				c0.988,1.889,2.84,3.186,4.953,3.467c0.259,0.037,0.554,0.058,0.869,0.058c1.822,0,3.577-0.766,4.816-2.102l38.808-41.807
				c1.194-1.285,1.816-2.959,1.751-4.713c-0.065-1.754-0.809-3.378-2.096-4.572C185.953,59.827,184.366,59.203,182.703,59.203
				L182.703,59.203z"/>
		</g>
	</g>
	<g>
		<g>
			<g>
				<path style="fill:#0092FF;" d="M120.095,135.881H93.608c-2.175,0-3.955-1.78-3.955-3.955l0,0c0-2.175,1.78-3.955,3.955-3.955
					h26.487c2.175,0,3.955,1.78,3.955,3.955l0,0C124.05,134.101,122.27,135.881,120.095,135.881z"/>
			</g>
		</g>
		<g>
			<g>
				<path style="fill:#00A1FF;" d="M120.095,150.445H93.608c-2.175,0-3.955-1.78-3.955-3.955v0c0-2.175,1.78-3.955,3.955-3.955
					h26.487c2.175,0,3.955,1.78,3.955,3.955v0C124.05,148.665,122.27,150.445,120.095,150.445z"/>
			</g>
		</g>
		<g>
			<g>
				<path style="fill:#00ABFF;" d="M120.095,165.008H93.608c-2.175,0-3.955-1.78-3.955-3.955l0,0c0-2.175,1.78-3.955,3.955-3.955
					h26.487c2.175,0,3.955,1.78,3.955,3.955l0,0C124.05,163.229,122.27,165.008,120.095,165.008z"/>
			</g>
		</g>
		<linearGradient id="SVGID_3_" gradientUnits="userSpaceOnUse" x1="122.0019" y1="185.2236" x2="122.0019" y2="62.8757">
			<stop  offset="2.200000e-07" style="stop-color:#00C6FF"/>
			<stop  offset="0.2289" style="stop-color:#00ABFF"/>
			<stop  offset="0.5453" style="stop-color:#008CFF"/>
			<stop  offset="0.8137" style="stop-color:#0079FF"/>
			<stop  offset="1" style="stop-color:#0072FF"/>
		</linearGradient>
		<path style="fill:url(#SVGID_3_);" d="M170.915,127.628c0-1.656-1.342-2.998-2.998-2.998c-1.656,0-2.998,1.342-2.998,2.998
			c0,0.002,0.001,0.005,0.001,0.007h-0.001v46.73c0,2.681-2.181,4.862-4.862,4.862h-76.11c-2.681,0-4.862-2.181-4.862-4.862V73.734
			c0-2.681,2.181-4.862,4.862-4.862h27.461c1.656,0,2.998-1.342,2.998-2.998c0-1.656-1.342-2.998-2.998-2.998H83.947
			c-5.987,0-10.859,4.871-10.859,10.858v100.631c0,5.988,4.871,10.859,10.859,10.859h76.11c5.988,0,10.859-4.871,10.859-10.859
			v-46.73h-0.001C170.914,127.632,170.915,127.63,170.915,127.628z"/>
	</g>
</g>
</svg>
