<?xml version="1.0" encoding="iso-8859-1"?>
<!-- Generator: Adobe Illustrator 22.0.0, SVG Export Plug-In . SVG Version: 6.00 Build 0)  -->
<svg version="1.1" id="&#x56FE;&#x5C42;_1" xmlns="http://www.w3.org/2000/svg" xmlns:xlink="http://www.w3.org/1999/xlink" x="0px"
	 y="0px" viewBox="0 0 248.099 248.099" style="enable-background:new 0 0 248.099 248.099;" xml:space="preserve">
<path style="fill:#FFFFFF;" d="M124.05,248.099L124.05,248.099C55.822,248.099,0,192.277,0,124.05v0C0,55.822,55.822,0,124.049,0h0
	c68.227,0,124.049,55.822,124.049,124.049v0C248.099,192.277,192.277,248.099,124.05,248.099z"/>
<g>
	<linearGradient id="SVGID_1_" gradientUnits="userSpaceOnUse" x1="64.2188" y1="160.0658" x2="64.2188" y2="92.7835">
		<stop  offset="2.200000e-07" style="stop-color:#00C6FF"/>
		<stop  offset="0.2289" style="stop-color:#00ABFF"/>
		<stop  offset="0.5453" style="stop-color:#008CFF"/>
		<stop  offset="0.8137" style="stop-color:#0079FF"/>
		<stop  offset="1" style="stop-color:#0072FF"/>
	</linearGradient>
	<path style="fill:url(#SVGID_1_);" d="M90.731,138.408c0,2.072-0.467,4.313-1.4,6.724c-0.933,2.411-2.4,4.779-4.401,7.101
		c-2.002,2.323-4.558,4.209-7.668,5.658c-3.11,1.45-6.735,2.175-10.873,2.175c-3.138,0-5.991-0.326-8.56-0.977
		c-2.57-0.65-4.903-1.664-6.998-3.04c-2.096-1.376-4.023-3.188-5.781-5.437c-1.569-2.041-2.908-4.327-4.016-6.857
		c-1.11-2.53-1.941-5.23-2.495-8.1c-0.555-2.869-0.832-5.917-0.832-9.142c0-5.237,0.696-9.927,2.09-14.069
		c1.393-4.142,3.387-7.685,5.984-10.629c2.596-2.944,5.639-5.185,9.128-6.724c3.489-1.538,7.207-2.308,11.157-2.308
		c4.814,0,9.101,1.051,12.861,3.151c3.759,2.101,6.639,4.697,8.641,7.789c2.001,3.092,3.002,6.014,3.002,8.766
		c0,1.509-0.487,2.84-1.46,3.994c-0.974,1.154-2.15,1.731-3.53,1.731c-1.541,0-2.698-0.399-3.468-1.198
		c-0.771-0.799-1.63-2.175-2.576-4.127c-1.569-3.225-3.415-5.637-5.538-7.235c-2.123-1.598-4.74-2.397-7.85-2.397
		c-4.95,0-8.892,2.057-11.826,6.169c-2.935,4.113-4.402,9.957-4.402,17.531c0,5.06,0.649,9.269,1.947,12.627
		c1.298,3.359,3.137,5.866,5.518,7.522c2.379,1.658,5.166,2.486,8.358,2.486c3.461,0,6.39-0.939,8.783-2.818
		c2.394-1.878,4.199-4.638,5.416-8.277c0.514-1.715,1.149-3.114,1.907-4.194c0.757-1.08,1.974-1.62,3.651-1.62
		c1.433,0,2.664,0.548,3.692,1.642C90.217,135.419,90.731,136.781,90.731,138.408z"/>
	<linearGradient id="SVGID_2_" gradientUnits="userSpaceOnUse" x1="124.4853" y1="158.9562" x2="124.4853" y2="93.8932">
		<stop  offset="2.200000e-07" style="stop-color:#00C6FF"/>
		<stop  offset="0.2289" style="stop-color:#00ABFF"/>
		<stop  offset="0.5453" style="stop-color:#008CFF"/>
		<stop  offset="0.8137" style="stop-color:#0079FF"/>
		<stop  offset="1" style="stop-color:#0072FF"/>
	</linearGradient>
	<path style="fill:url(#SVGID_2_);" d="M140.754,104.056h-27.141v15.977h24.991c1.839,0,3.211,0.451,4.118,1.354
		c0.906,0.903,1.359,2.094,1.359,3.573c0,1.48-0.447,2.685-1.339,3.617c-0.892,0.932-2.272,1.398-4.138,1.398h-24.991v18.507h28.074
		c1.893,0,3.32,0.481,4.28,1.442c0.96,0.962,1.44,2.242,1.44,3.839c0,1.538-0.48,2.789-1.44,3.75
		c-0.96,0.962-2.387,1.443-4.28,1.443h-32.739c-2.624,0-4.51-0.636-5.66-1.909c-1.15-1.272-1.724-3.328-1.724-6.169V101.97
		c0-1.893,0.257-3.44,0.771-4.638c0.513-1.199,1.319-2.071,2.414-2.618c1.095-0.547,2.495-0.821,4.199-0.821h31.807
		c1.92,0,3.347,0.466,4.28,1.398c0.933,0.932,1.399,2.152,1.399,3.661c0,1.539-0.467,2.774-1.399,3.706
		C144.101,103.59,142.674,104.056,140.754,104.056z"/>
	<linearGradient id="SVGID_3_" gradientUnits="userSpaceOnUse" x1="176.4961" y1="160.0658" x2="176.4961" y2="93.8932">
		<stop  offset="2.200000e-07" style="stop-color:#00C6FF"/>
		<stop  offset="0.2289" style="stop-color:#00ABFF"/>
		<stop  offset="0.5453" style="stop-color:#008CFF"/>
		<stop  offset="0.8137" style="stop-color:#0079FF"/>
		<stop  offset="1" style="stop-color:#0072FF"/>
	</linearGradient>
	<path style="fill:url(#SVGID_3_);" d="M195.604,104.766H182.46v47.266c0,2.723-0.555,4.742-1.663,6.058
		c-1.109,1.316-2.543,1.975-4.301,1.975c-1.785,0-3.239-0.666-4.361-1.997c-1.123-1.332-1.683-3.343-1.683-6.036v-47.266h-13.145
		c-2.056,0-3.584-0.495-4.584-1.487c-1.001-0.991-1.501-2.3-1.501-3.928c0-1.686,0.52-3.018,1.562-3.994
		c1.041-0.976,2.549-1.464,4.524-1.464h38.298c2.083,0,3.631,0.503,4.646,1.509c1.014,1.006,1.521,2.323,1.521,3.95
		c0,1.627-0.514,2.937-1.542,3.928C199.201,104.271,197.66,104.766,195.604,104.766z"/>
	<linearGradient id="SVGID_4_" gradientUnits="userSpaceOnUse" x1="205.0367" y1="160.0658" x2="205.0367" y2="146.7071">
		<stop  offset="2.200000e-07" style="stop-color:#00C6FF"/>
		<stop  offset="0.2289" style="stop-color:#00ABFF"/>
		<stop  offset="0.5453" style="stop-color:#008CFF"/>
		<stop  offset="0.8137" style="stop-color:#0079FF"/>
		<stop  offset="1" style="stop-color:#0072FF"/>
	</linearGradient>
	<path style="fill:url(#SVGID_4_);" d="M205.098,160.066c-1.677,0-3.124-0.592-4.341-1.775c-1.217-1.183-1.826-2.841-1.826-4.971
		c0-1.804,0.581-3.358,1.745-4.66c1.162-1.301,2.596-1.952,4.301-1.952c1.704,0,3.158,0.643,4.361,1.93
		c1.203,1.287,1.805,2.848,1.805,4.682c0,2.101-0.602,3.75-1.805,4.949C208.134,159.467,206.721,160.066,205.098,160.066z"/>
</g>
</svg>
