<?xml version="1.0" encoding="iso-8859-1"?>
<!-- Generator: Adobe Illustrator 22.0.0, SVG Export Plug-In . SVG Version: 6.00 Build 0)  -->
<svg version="1.1" id="&#x56FE;&#x5C42;_1" xmlns="http://www.w3.org/2000/svg" xmlns:xlink="http://www.w3.org/1999/xlink" x="0px"
	 y="0px" viewBox="0 0 113.917 113.917" style="enable-background:new 0 0 113.917 113.917;" xml:space="preserve">
<g>
	<g>
		<g>
			<g>
				<g>
					<path style="fill:#6CEAA2;" d="M56.959,113.917C25.552,113.917,0,88.366,0,56.958C0,25.552,25.552,0,56.959,0
						s56.958,25.552,56.958,56.958C113.917,88.366,88.367,113.917,56.959,113.917z M56.959,5.976
						c-28.112,0-50.983,22.871-50.983,50.982c0,28.112,22.87,50.982,50.983,50.982c28.111,0,50.981-22.87,50.981-50.982
						C107.94,28.847,85.07,5.976,56.959,5.976z"/>
				</g>
			</g>
		</g>
	</g>
	<g>
		<path style="fill:#6CEAA2;" d="M47.395,84.492c-0.945,0-1.852-0.376-2.52-1.044L21.332,59.905c-1.392-1.392-1.392-3.648,0-5.041
			c1.391-1.392,3.65-1.392,5.041,0l21.022,21.022L87.71,35.57c1.392-1.393,3.648-1.393,5.041,0c1.392,1.392,1.392,3.648,0,5.041
			L49.915,83.447C49.246,84.116,48.34,84.492,47.395,84.492z"/>
	</g>
</g>
</svg>
